<svg width="520" height="390" viewBox="0 0 520 390" fill="none" xmlns="http://www.w3.org/2000/svg">
<g clip-path="url(#clip0_7_221)">
<path d="M2 62H422" stroke="var(--marker-soft-line, #E5E1D8)" stroke-width="2.5" stroke-linecap="round"/>
<path d="M2 122H302" stroke="var(--marker-soft-line, #E5E1D8)" stroke-width="2.5" stroke-linecap="round"/>
<path d="M2 182H62" stroke="var(--marker-soft-line, #E5E1D8)" stroke-width="2.5" stroke-linecap="round"/>
<path d="M2 242H62" stroke="var(--marker-soft-line, #E5E1D8)" stroke-width="2.5" stroke-linecap="round"/>
<path d="M62 2L62 388" stroke="var(--marker-soft-line, #E5E1D8)" stroke-width="2.5" stroke-linecap="round"/>
<g opacity="0.95">
<path d="M125 188C126.657 188 128 186.657 128 185C128 183.343 126.657 182 125 182C123.343 182 122 183.343 122 185C122 186.657 123.343 188 125 188Z" fill="var(--marker-dot, #C8C1B6)"/>
<path d="M154 188C155.657 188 157 186.657 157 185C157 183.343 155.657 182 154 182C152.343 182 151 183.343 151 185C151 186.657 152.343 188 154 188Z" fill="var(--marker-dot, #C8C1B6)"/>
<path d="M183 188C184.657 188 186 186.657 186 185C186 183.343 184.657 182 183 182C181.343 182 180 183.343 180 185C180 186.657 181.343 188 183 188Z" fill="var(--marker-dot, #C8C1B6)"/>
<path d="M212 188C213.657 188 215 186.657 215 185C215 183.343 213.657 182 212 182C210.343 182 209 183.343 209 185C209 186.657 210.343 188 212 188Z" fill="var(--marker-dot, #C8C1B6)"/>
<path d="M241 188C242.657 188 244 186.657 244 185C244 183.343 242.657 182 241 182C239.343 182 238 183.343 238 185C238 186.657 239.343 188 241 188Z" fill="var(--marker-dot, #C8C1B6)"/>
<path d="M270 188C271.657 188 273 186.657 273 185C273 183.343 271.657 182 270 182C268.343 182 267 183.343 267 185C267 186.657 268.343 188 270 188Z" fill="var(--marker-dot, #C8C1B6)"/>
<path d="M299 188C300.657 188 302 186.657 302 185C302 183.343 300.657 182 299 182C297.343 182 296 183.343 296 185C296 186.657 297.343 188 299 188Z" fill="var(--marker-dot, #C8C1B6)"/>
<path d="M125 217C126.657 217 128 215.657 128 214C128 212.343 126.657 211 125 211C123.343 211 122 212.343 122 214C122 215.657 123.343 217 125 217Z" fill="var(--marker-dot, #C8C1B6)"/>
<path d="M154 217C155.657 217 157 215.657 157 214C157 212.343 155.657 211 154 211C152.343 211 151 212.343 151 214C151 215.657 152.343 217 154 217Z" fill="var(--marker-dot, #C8C1B6)"/>
<path d="M183 217C184.657 217 186 215.657 186 214C186 212.343 184.657 211 183 211C181.343 211 180 212.343 180 214C180 215.657 181.343 217 183 217Z" fill="var(--marker-dot, #C8C1B6)"/>
<path d="M212 217C213.657 217 215 215.657 215 214C215 212.343 213.657 211 212 211C210.343 211 209 212.343 209 214C209 215.657 210.343 217 212 217Z" fill="var(--marker-dot, #C8C1B6)"/>
<path d="M241 217C242.657 217 244 215.657 244 214C244 212.343 242.657 211 241 211C239.343 211 238 212.343 238 214C238 215.657 239.343 217 241 217Z" fill="var(--marker-dot, #C8C1B6)"/>
<path d="M270 217C271.657 217 273 215.657 273 214C273 212.343 271.657 211 270 211C268.343 211 267 212.343 267 214C267 215.657 268.343 217 270 217Z" fill="var(--marker-dot, #C8C1B6)"/>
<path d="M299 217C300.657 217 302 215.657 302 214C302 212.343 300.657 211 299 211C297.343 211 296 212.343 296 214C296 215.657 297.343 217 299 217Z" fill="var(--marker-dot, #C8C1B6)"/>
<path d="M125 246C126.657 246 128 244.657 128 243C128 241.343 126.657 240 125 240C123.343 240 122 241.343 122 243C122 244.657 123.343 246 125 246Z" fill="var(--marker-dot, #C8C1B6)"/>
<path d="M154 246C155.657 246 157 244.657 157 243C157 241.343 155.657 240 154 240C152.343 240 151 241.343 151 243C151 244.657 152.343 246 154 246Z" fill="var(--marker-dot, #C8C1B6)"/>
<path d="M183 246C184.657 246 186 244.657 186 243C186 241.343 184.657 240 183 240C181.343 240 180 241.343 180 243C180 244.657 181.343 246 183 246Z" fill="var(--marker-dot, #C8C1B6)"/>
<path d="M212 246C213.657 246 215 244.657 215 243C215 241.343 213.657 240 212 240C210.343 240 209 241.343 209 243C209 244.657 210.343 246 212 246Z" fill="var(--marker-dot, #C8C1B6)"/>
<path d="M241 246C242.657 246 244 244.657 244 243C244 241.343 242.657 240 241 240C239.343 240 238 241.343 238 243C238 244.657 239.343 246 241 246Z" fill="var(--marker-dot, #C8C1B6)"/>
<path d="M270 246C271.657 246 273 244.657 273 243C273 241.343 271.657 240 270 240C268.343 240 267 241.343 267 243C267 244.657 268.343 246 270 246Z" fill="var(--marker-dot, #C8C1B6)"/>
<path d="M299 246C300.657 246 302 244.657 302 243C302 241.343 300.657 240 299 240C297.343 240 296 241.343 296 243C296 244.657 297.343 246 299 246Z" fill="var(--marker-dot, #C8C1B6)"/>
<path d="M125 275C126.657 275 128 273.657 128 272C128 270.343 126.657 269 125 269C123.343 269 122 270.343 122 272C122 273.657 123.343 275 125 275Z" fill="var(--marker-dot, #C8C1B6)"/>
<path d="M154 275C155.657 275 157 273.657 157 272C157 270.343 155.657 269 154 269C152.343 269 151 270.343 151 272C151 273.657 152.343 275 154 275Z" fill="var(--marker-dot, #C8C1B6)"/>
<path d="M183 275C184.657 275 186 273.657 186 272C186 270.343 184.657 269 183 269C181.343 269 180 270.343 180 272C180 273.657 181.343 275 183 275Z" fill="var(--marker-dot, #C8C1B6)"/>
<path d="M212 275C213.657 275 215 273.657 215 272C215 270.343 213.657 269 212 269C210.343 269 209 270.343 209 272C209 273.657 210.343 275 212 275Z" fill="var(--marker-dot, #C8C1B6)"/>
<path d="M241 275C242.657 275 244 273.657 244 272C244 270.343 242.657 269 241 269C239.343 269 238 270.343 238 272C238 273.657 239.343 275 241 275Z" fill="var(--marker-dot, #C8C1B6)"/>
<path d="M270 275C271.657 275 273 273.657 273 272C273 270.343 271.657 269 270 269C268.343 269 267 270.343 267 272C267 273.657 268.343 275 270 275Z" fill="var(--marker-dot, #C8C1B6)"/>
<path d="M299 275C300.657 275 302 273.657 302 272C302 270.343 300.657 269 299 269C297.343 269 296 270.343 296 272C296 273.657 297.343 275 299 275Z" fill="var(--marker-dot, #C8C1B6)"/>
<path d="M125 304C126.657 304 128 302.657 128 301C128 299.343 126.657 298 125 298C123.343 298 122 299.343 122 301C122 302.657 123.343 304 125 304Z" fill="var(--marker-dot, #C8C1B6)"/>
<path d="M125 333C126.657 333 128 331.657 128 330C128 328.343 126.657 327 125 327C123.343 327 122 328.343 122 330C122 331.657 123.343 333 125 333Z" fill="var(--marker-dot, #C8C1B6)"/>
<path d="M154 304C155.657 304 157 302.657 157 301C157 299.343 155.657 298 154 298C152.343 298 151 299.343 151 301C151 302.657 152.343 304 154 304Z" fill="var(--marker-dot, #C8C1B6)"/>
<path d="M154 333C155.657 333 157 331.657 157 330C157 328.343 155.657 327 154 327C152.343 327 151 328.343 151 330C151 331.657 152.343 333 154 333Z" fill="var(--marker-dot, #C8C1B6)"/>
<path d="M183 304C184.657 304 186 302.657 186 301C186 299.343 184.657 298 183 298C181.343 298 180 299.343 180 301C180 302.657 181.343 304 183 304Z" fill="var(--marker-dot, #C8C1B6)"/>
<path d="M183 333C184.657 333 186 331.657 186 330C186 328.343 184.657 327 183 327C181.343 327 180 328.343 180 330C180 331.657 181.343 333 183 333Z" fill="var(--marker-dot, #C8C1B6)"/>
<path d="M212 304C213.657 304 215 302.657 215 301C215 299.343 213.657 298 212 298C210.343 298 209 299.343 209 301C209 302.657 210.343 304 212 304Z" fill="var(--marker-dot, #C8C1B6)"/>
<path d="M212 333C213.657 333 215 331.657 215 330C215 328.343 213.657 327 212 327C210.343 327 209 328.343 209 330C209 331.657 210.343 333 212 333Z" fill="var(--marker-dot, #C8C1B6)"/>
<path d="M241 304C242.657 304 244 302.657 244 301C244 299.343 242.657 298 241 298C239.343 298 238 299.343 238 301C238 302.657 239.343 304 241 304Z" fill="var(--marker-dot, #C8C1B6)"/>
<path d="M241 333C242.657 333 244 331.657 244 330C244 328.343 242.657 327 241 327C239.343 327 238 328.343 238 330C238 331.657 239.343 333 241 333Z" fill="var(--marker-dot, #C8C1B6)"/>
<path d="M270 304C271.657 304 273 302.657 273 301C273 299.343 271.657 298 270 298C268.343 298 267 299.343 267 301C267 302.657 268.343 304 270 304Z" fill="var(--marker-dot, #C8C1B6)"/>
<path d="M270 333C271.657 333 273 331.657 273 330C273 328.343 271.657 327 270 327C268.343 327 267 328.343 267 330C267 331.657 268.343 333 270 333Z" fill="var(--marker-dot, #C8C1B6)"/>
<path d="M299 304C300.657 304 302 302.657 302 301C302 299.343 300.657 298 299 298C297.343 298 296 299.343 296 301C296 302.657 297.343 304 299 304Z" fill="var(--marker-dot, #C8C1B6)"/>
<path d="M299 333C300.657 333 302 331.657 302 330C302 328.343 300.657 327 299 327C297.343 327 296 328.343 296 330C296 331.657 297.343 333 299 333Z" fill="var(--marker-dot, #C8C1B6)"/>
</g>
<path d="M362 258H514.375" stroke="var(--marker-accent, #3F6F6A)" stroke-width="2.25" stroke-linecap="round"/>
<path d="M514 264C517.314 264 520 261.314 520 258C520 254.686 517.314 252 514 252C510.686 252 508 254.686 508 258C508 261.314 510.686 264 514 264Z" fill="var(--marker-accent, #3F6F6A)"/>
</g>
<defs>
<clipPath id="clip0_7_221">
<rect width="520" height="390"/>
</clipPath>
</defs>
</svg>
