<svg width="712" height="38" viewBox="0 0 712 38" fill="none" xmlns="http://www.w3.org/2000/svg">
<g clip-path="url(#clip0_7_189)">
<path d="M2 17.75C1.30964 17.75 0.75 18.3096 0.75 19C0.75 19.6904 1.30964 20.25 2 20.25V19V17.75ZM229 20.25H230.25V17.75H229V19V20.25ZM2 19V20.25H229V19V17.75H2V19Z" fill="var(--marker-soft-line, #E5E1D8)"/>
<path d="M231 2V36" stroke="var(--marker-soft-line, #E5E1D8)" stroke-width="2.5" stroke-linecap="round"/>
<path d="M233 19H337" stroke="var(--marker-accent, #3F6F6A)" stroke-width="2.25" stroke-linecap="square"/>
<path d="M338 26C341.866 26 345 22.866 345 19C345 15.134 341.866 12 338 12C334.134 12 331 15.134 331 19C331 22.866 334.134 26 338 26Z" fill="var(--marker-accent, #3F6F6A)"/>
<path d="M352 19H712" stroke="var(--marker-soft-line, #E5E1D8)" stroke-width="2.5" stroke-dasharray="10 10"/>
</g>
<defs>
<clipPath id="clip0_7_189">
<rect width="712" height="38"/>
</clipPath>
</defs>
</svg>
