<svg width="567" height="608" viewBox="0 0 567 608" fill="none" xmlns="http://www.w3.org/2000/svg">
<g clip-path="url(#clip0_21_8)">
<path d="M223 0H567L415 192H198V342L130 311C81 291 42 241 42 180C42 80 150 0 223 0Z" fill="url(#paint0_linear_21_8)"/>
<path d="M218 207C308 244 391 280 465 317C500 337 531 380 531 431C531 529 457 608 367 608H0L151 408H395L218 207Z" fill="url(#paint1_linear_21_8)"/>
<path d="M218 207C308 244 391 280 465 317C467 361 450 397 412 408C406 410 400 410 395 408L218 207Z" fill="url(#paint2_linear_21_8)"/>
</g>
<defs>
<linearGradient id="paint0_linear_21_8" x1="42" y1="0" x2="532" y2="608" gradientUnits="userSpaceOnUse">
<stop stop-color="#20201F"/>
<stop offset="0.55" stop-color="#1D1E1D"/>
<stop offset="1" stop-color="#202120"/>
</linearGradient>
<linearGradient id="paint1_linear_21_8" x1="42" y1="-1.1124e-06" x2="532" y2="608" gradientUnits="userSpaceOnUse">
<stop stop-color="#20201F"/>
<stop offset="0.55" stop-color="#1D1E1D"/>
<stop offset="1" stop-color="#202120"/>
</linearGradient>
<linearGradient id="paint2_linear_21_8" x1="233" y1="216" x2="457" y2="399" gradientUnits="userSpaceOnUse">
<stop stop-color="#466F6F"/>
<stop offset="0.52" stop-color="#3C6262"/>
<stop offset="1" stop-color="#345252"/>
</linearGradient>
<clipPath id="clip0_21_8">
<rect width="567" height="608" fill="white"/>
</clipPath>
</defs>
</svg>
