<svg width="512" height="512" viewBox="0 0 512 512" fill="none" xmlns="http://www.w3.org/2000/svg">
<rect width="512" height="512" fill="white"/>
<path d="M133 38C134.657 38 136 36.6569 136 35C136 33.3431 134.657 32 133 32C131.343 32 130 33.3431 130 35C130 36.6569 131.343 38 133 38Z" fill="#E5E1D8"/>
<path d="M155 38C156.657 38 158 36.6569 158 35C158 33.3431 156.657 32 155 32C153.343 32 152 33.3431 152 35C152 36.6569 153.343 38 155 38Z" fill="#E5E1D8"/>
<path d="M177 38C178.657 38 180 36.6569 180 35C180 33.3431 178.657 32 177 32C175.343 32 174 33.3431 174 35C174 36.6569 175.343 38 177 38Z" fill="#E5E1D8"/>
<path d="M199 38C200.657 38 202 36.6569 202 35C202 33.3431 200.657 32 199 32C197.343 32 196 33.3431 196 35C196 36.6569 197.343 38 199 38Z" fill="#E5E1D8"/>
<path d="M221 38C222.657 38 224 36.6569 224 35C224 33.3431 222.657 32 221 32C219.343 32 218 33.3431 218 35C218 36.6569 219.343 38 221 38Z" fill="#E5E1D8"/>
<path d="M133 60C134.657 60 136 58.6569 136 57C136 55.3431 134.657 54 133 54C131.343 54 130 55.3431 130 57C130 58.6569 131.343 60 133 60Z" fill="#E5E1D8"/>
<path d="M155 60C156.657 60 158 58.6569 158 57C158 55.3431 156.657 54 155 54C153.343 54 152 55.3431 152 57C152 58.6569 153.343 60 155 60Z" fill="#E5E1D8"/>
<path d="M177 60C178.657 60 180 58.6569 180 57C180 55.3431 178.657 54 177 54C175.343 54 174 55.3431 174 57C174 58.6569 175.343 60 177 60Z" fill="#E5E1D8"/>
<path d="M199 60C200.657 60 202 58.6569 202 57C202 55.3431 200.657 54 199 54C197.343 54 196 55.3431 196 57C196 58.6569 197.343 60 199 60Z" fill="#E5E1D8"/>
<path d="M221 60C222.657 60 224 58.6569 224 57C224 55.3431 222.657 54 221 54C219.343 54 218 55.3431 218 57C218 58.6569 219.343 60 221 60Z" fill="#E5E1D8"/>
<path d="M133 82C134.657 82 136 80.6569 136 79C136 77.3431 134.657 76 133 76C131.343 76 130 77.3431 130 79C130 80.6569 131.343 82 133 82Z" fill="#E5E1D8"/>
<path d="M155 82C156.657 82 158 80.6569 158 79C158 77.3431 156.657 76 155 76C153.343 76 152 77.3431 152 79C152 80.6569 153.343 82 155 82Z" fill="#E5E1D8"/>
<path d="M177 82C178.657 82 180 80.6569 180 79C180 77.3431 178.657 76 177 76C175.343 76 174 77.3431 174 79C174 80.6569 175.343 82 177 82Z" fill="#E5E1D8"/>
<path d="M199 82C200.657 82 202 80.6569 202 79C202 77.3431 200.657 76 199 76C197.343 76 196 77.3431 196 79C196 80.6569 197.343 82 199 82Z" fill="#E5E1D8"/>
<path d="M221 82C222.657 82 224 80.6569 224 79C224 77.3431 222.657 76 221 76C219.343 76 218 77.3431 218 79C218 80.6569 219.343 82 221 82Z" fill="#E5E1D8"/>
<path d="M133 104C134.657 104 136 102.657 136 101C136 99.3431 134.657 98 133 98C131.343 98 130 99.3431 130 101C130 102.657 131.343 104 133 104Z" fill="#E5E1D8"/>
<path d="M155 104C156.657 104 158 102.657 158 101C158 99.3431 156.657 98 155 98C153.343 98 152 99.3431 152 101C152 102.657 153.343 104 155 104Z" fill="#E5E1D8"/>
<path d="M177 104C178.657 104 180 102.657 180 101C180 99.3431 178.657 98 177 98C175.343 98 174 99.3431 174 101C174 102.657 175.343 104 177 104Z" fill="#E5E1D8"/>
<path d="M199 104C200.657 104 202 102.657 202 101C202 99.3431 200.657 98 199 98C197.343 98 196 99.3431 196 101C196 102.657 197.343 104 199 104Z" fill="#E5E1D8"/>
<path d="M221 104C222.657 104 224 102.657 224 101C224 99.3431 222.657 98 221 98C219.343 98 218 99.3431 218 101C218 102.657 219.343 104 221 104Z" fill="#E5E1D8"/>
<path d="M133 126C134.657 126 136 124.657 136 123C136 121.343 134.657 120 133 120C131.343 120 130 121.343 130 123C130 124.657 131.343 126 133 126Z" fill="#E5E1D8"/>
<path d="M155 126C156.657 126 158 124.657 158 123C158 121.343 156.657 120 155 120C153.343 120 152 121.343 152 123C152 124.657 153.343 126 155 126Z" fill="#E5E1D8"/>
<path d="M177 126C178.657 126 180 124.657 180 123C180 121.343 178.657 120 177 120C175.343 120 174 121.343 174 123C174 124.657 175.343 126 177 126Z" fill="#E5E1D8"/>
<path d="M199 126C200.657 126 202 124.657 202 123C202 121.343 200.657 120 199 120C197.343 120 196 121.343 196 123C196 124.657 197.343 126 199 126Z" fill="#E5E1D8"/>
<path d="M221 126C222.657 126 224 124.657 224 123C224 121.343 222.657 120 221 120C219.343 120 218 121.343 218 123C218 124.657 219.343 126 221 126Z" fill="#E5E1D8"/>
<path d="M133 148C134.657 148 136 146.657 136 145C136 143.343 134.657 142 133 142C131.343 142 130 143.343 130 145C130 146.657 131.343 148 133 148Z" fill="#E5E1D8"/>
<path d="M155 148C156.657 148 158 146.657 158 145C158 143.343 156.657 142 155 142C153.343 142 152 143.343 152 145C152 146.657 153.343 148 155 148Z" fill="#E5E1D8"/>
<path d="M177 148C178.657 148 180 146.657 180 145C180 143.343 178.657 142 177 142C175.343 142 174 143.343 174 145C174 146.657 175.343 148 177 148Z" fill="#E5E1D8"/>
<path d="M199 148C200.657 148 202 146.657 202 145C202 143.343 200.657 142 199 142C197.343 142 196 143.343 196 145C196 146.657 197.343 148 199 148Z" fill="#E5E1D8"/>
<path d="M221 148C222.657 148 224 146.657 224 145C224 143.343 222.657 142 221 142C219.343 142 218 143.343 218 145C218 146.657 219.343 148 221 148Z" fill="#E5E1D8"/>
<path d="M23 38C24.6569 38 26 36.6569 26 35C26 33.3431 24.6569 32 23 32C21.3431 32 20 33.3431 20 35C20 36.6569 21.3431 38 23 38Z" fill="#E5E1D8"/>
<path d="M45 38C46.6569 38 48 36.6569 48 35C48 33.3431 46.6569 32 45 32C43.3431 32 42 33.3431 42 35C42 36.6569 43.3431 38 45 38Z" fill="#E5E1D8"/>
<path d="M67 38C68.6569 38 70 36.6569 70 35C70 33.3431 68.6569 32 67 32C65.3431 32 64 33.3431 64 35C64 36.6569 65.3431 38 67 38Z" fill="#E5E1D8"/>
<path d="M89 38C90.6569 38 92 36.6569 92 35C92 33.3431 90.6569 32 89 32C87.3431 32 86 33.3431 86 35C86 36.6569 87.3431 38 89 38Z" fill="#E5E1D8"/>
<path d="M111 38C112.657 38 114 36.6569 114 35C114 33.3431 112.657 32 111 32C109.343 32 108 33.3431 108 35C108 36.6569 109.343 38 111 38Z" fill="#E5E1D8"/>
<path d="M133 38C134.657 38 136 36.6569 136 35C136 33.3431 134.657 32 133 32C131.343 32 130 33.3431 130 35C130 36.6569 131.343 38 133 38Z" fill="#E5E1D8"/>
<path d="M23 60C24.6569 60 26 58.6569 26 57C26 55.3431 24.6569 54 23 54C21.3431 54 20 55.3431 20 57C20 58.6569 21.3431 60 23 60Z" fill="#E5E1D8"/>
<path d="M45 60C46.6569 60 48 58.6569 48 57C48 55.3431 46.6569 54 45 54C43.3431 54 42 55.3431 42 57C42 58.6569 43.3431 60 45 60Z" fill="#E5E1D8"/>
<path d="M67 60C68.6569 60 70 58.6569 70 57C70 55.3431 68.6569 54 67 54C65.3431 54 64 55.3431 64 57C64 58.6569 65.3431 60 67 60Z" fill="#E5E1D8"/>
<path d="M89 60C90.6569 60 92 58.6569 92 57C92 55.3431 90.6569 54 89 54C87.3431 54 86 55.3431 86 57C86 58.6569 87.3431 60 89 60Z" fill="#E5E1D8"/>
<path d="M111 60C112.657 60 114 58.6569 114 57C114 55.3431 112.657 54 111 54C109.343 54 108 55.3431 108 57C108 58.6569 109.343 60 111 60Z" fill="#E5E1D8"/>
<path d="M133 60C134.657 60 136 58.6569 136 57C136 55.3431 134.657 54 133 54C131.343 54 130 55.3431 130 57C130 58.6569 131.343 60 133 60Z" fill="#E5E1D8"/>
<path d="M23 82C24.6569 82 26 80.6569 26 79C26 77.3431 24.6569 76 23 76C21.3431 76 20 77.3431 20 79C20 80.6569 21.3431 82 23 82Z" fill="#E5E1D8"/>
<path d="M45 82C46.6569 82 48 80.6569 48 79C48 77.3431 46.6569 76 45 76C43.3431 76 42 77.3431 42 79C42 80.6569 43.3431 82 45 82Z" fill="#E5E1D8"/>
<path d="M67 82C68.6569 82 70 80.6569 70 79C70 77.3431 68.6569 76 67 76C65.3431 76 64 77.3431 64 79C64 80.6569 65.3431 82 67 82Z" fill="#E5E1D8"/>
<path d="M89 82C90.6569 82 92 80.6569 92 79C92 77.3431 90.6569 76 89 76C87.3431 76 86 77.3431 86 79C86 80.6569 87.3431 82 89 82Z" fill="#E5E1D8"/>
<path d="M111 82C112.657 82 114 80.6569 114 79C114 77.3431 112.657 76 111 76C109.343 76 108 77.3431 108 79C108 80.6569 109.343 82 111 82Z" fill="#E5E1D8"/>
<path d="M133 82C134.657 82 136 80.6569 136 79C136 77.3431 134.657 76 133 76C131.343 76 130 77.3431 130 79C130 80.6569 131.343 82 133 82Z" fill="#E5E1D8"/>
<path d="M23 104C24.6569 104 26 102.657 26 101C26 99.3431 24.6569 98 23 98C21.3431 98 20 99.3431 20 101C20 102.657 21.3431 104 23 104Z" fill="#E5E1D8"/>
<path d="M45 104C46.6569 104 48 102.657 48 101C48 99.3431 46.6569 98 45 98C43.3431 98 42 99.3431 42 101C42 102.657 43.3431 104 45 104Z" fill="#E5E1D8"/>
<path d="M67 104C68.6569 104 70 102.657 70 101C70 99.3431 68.6569 98 67 98C65.3431 98 64 99.3431 64 101C64 102.657 65.3431 104 67 104Z" fill="#E5E1D8"/>
<path d="M89 104C90.6569 104 92 102.657 92 101C92 99.3431 90.6569 98 89 98C87.3431 98 86 99.3431 86 101C86 102.657 87.3431 104 89 104Z" fill="#E5E1D8"/>
<path d="M111 104C112.657 104 114 102.657 114 101C114 99.3431 112.657 98 111 98C109.343 98 108 99.3431 108 101C108 102.657 109.343 104 111 104Z" fill="#E5E1D8"/>
<path d="M133 104C134.657 104 136 102.657 136 101C136 99.3431 134.657 98 133 98C131.343 98 130 99.3431 130 101C130 102.657 131.343 104 133 104Z" fill="#E5E1D8"/>
<path d="M23 126C24.6569 126 26 124.657 26 123C26 121.343 24.6569 120 23 120C21.3431 120 20 121.343 20 123C20 124.657 21.3431 126 23 126Z" fill="#E5E1D8"/>
<path d="M45 126C46.6569 126 48 124.657 48 123C48 121.343 46.6569 120 45 120C43.3431 120 42 121.343 42 123C42 124.657 43.3431 126 45 126Z" fill="#E5E1D8"/>
<path d="M67 126C68.6569 126 70 124.657 70 123C70 121.343 68.6569 120 67 120C65.3431 120 64 121.343 64 123C64 124.657 65.3431 126 67 126Z" fill="#E5E1D8"/>
<path d="M89 126C90.6569 126 92 124.657 92 123C92 121.343 90.6569 120 89 120C87.3431 120 86 121.343 86 123C86 124.657 87.3431 126 89 126Z" fill="#E5E1D8"/>
<path d="M111 126C112.657 126 114 124.657 114 123C114 121.343 112.657 120 111 120C109.343 120 108 121.343 108 123C108 124.657 109.343 126 111 126Z" fill="#E5E1D8"/>
<path d="M133 126C134.657 126 136 124.657 136 123C136 121.343 134.657 120 133 120C131.343 120 130 121.343 130 123C130 124.657 131.343 126 133 126Z" fill="#E5E1D8"/>
<path d="M23 148C24.6569 148 26 146.657 26 145C26 143.343 24.6569 142 23 142C21.3431 142 20 143.343 20 145C20 146.657 21.3431 148 23 148Z" fill="#E5E1D8"/>
<path d="M45 148C46.6569 148 48 146.657 48 145C48 143.343 46.6569 142 45 142C43.3431 142 42 143.343 42 145C42 146.657 43.3431 148 45 148Z" fill="#E5E1D8"/>
<path d="M67 148C68.6569 148 70 146.657 70 145C70 143.343 68.6569 142 67 142C65.3431 142 64 143.343 64 145C64 146.657 65.3431 148 67 148Z" fill="#E5E1D8"/>
<path d="M89 148C90.6569 148 92 146.657 92 145C92 143.343 90.6569 142 89 142C87.3431 142 86 143.343 86 145C86 146.657 87.3431 148 89 148Z" fill="#E5E1D8"/>
<path d="M111 148C112.657 148 114 146.657 114 145C114 143.343 112.657 142 111 142C109.343 142 108 143.343 108 145C108 146.657 109.343 148 111 148Z" fill="#E5E1D8"/>
<path d="M133 148C134.657 148 136 146.657 136 145C136 143.343 134.657 142 133 142C131.343 142 130 143.343 130 145C130 146.657 131.343 148 133 148Z" fill="#E5E1D8"/>
<path d="M132 148C133.657 148 135 146.657 135 145C135 143.343 133.657 142 132 142C130.343 142 129 143.343 129 145C129 146.657 130.343 148 132 148Z" fill="#E5E1D8"/>
<path d="M154 148C155.657 148 157 146.657 157 145C157 143.343 155.657 142 154 142C152.343 142 151 143.343 151 145C151 146.657 152.343 148 154 148Z" fill="#E5E1D8"/>
<path d="M176 148C177.657 148 179 146.657 179 145C179 143.343 177.657 142 176 142C174.343 142 173 143.343 173 145C173 146.657 174.343 148 176 148Z" fill="#E5E1D8"/>
<path d="M198 148C199.657 148 201 146.657 201 145C201 143.343 199.657 142 198 142C196.343 142 195 143.343 195 145C195 146.657 196.343 148 198 148Z" fill="#E5E1D8"/>
<path d="M220 148C221.657 148 223 146.657 223 145C223 143.343 221.657 142 220 142C218.343 142 217 143.343 217 145C217 146.657 218.343 148 220 148Z" fill="#E5E1D8"/>
<path d="M132 170C133.657 170 135 168.657 135 167C135 165.343 133.657 164 132 164C130.343 164 129 165.343 129 167C129 168.657 130.343 170 132 170Z" fill="#E5E1D8"/>
<path d="M154 170C155.657 170 157 168.657 157 167C157 165.343 155.657 164 154 164C152.343 164 151 165.343 151 167C151 168.657 152.343 170 154 170Z" fill="#E5E1D8"/>
<path d="M176 170C177.657 170 179 168.657 179 167C179 165.343 177.657 164 176 164C174.343 164 173 165.343 173 167C173 168.657 174.343 170 176 170Z" fill="#E5E1D8"/>
<path d="M198 170C199.657 170 201 168.657 201 167C201 165.343 199.657 164 198 164C196.343 164 195 165.343 195 167C195 168.657 196.343 170 198 170Z" fill="#E5E1D8"/>
<path d="M220 170C221.657 170 223 168.657 223 167C223 165.343 221.657 164 220 164C218.343 164 217 165.343 217 167C217 168.657 218.343 170 220 170Z" fill="#E5E1D8"/>
<path d="M132 192C133.657 192 135 190.657 135 189C135 187.343 133.657 186 132 186C130.343 186 129 187.343 129 189C129 190.657 130.343 192 132 192Z" fill="#E5E1D8"/>
<path d="M154 192C155.657 192 157 190.657 157 189C157 187.343 155.657 186 154 186C152.343 186 151 187.343 151 189C151 190.657 152.343 192 154 192Z" fill="#E5E1D8"/>
<path d="M176 192C177.657 192 179 190.657 179 189C179 187.343 177.657 186 176 186C174.343 186 173 187.343 173 189C173 190.657 174.343 192 176 192Z" fill="#E5E1D8"/>
<path d="M198 192C199.657 192 201 190.657 201 189C201 187.343 199.657 186 198 186C196.343 186 195 187.343 195 189C195 190.657 196.343 192 198 192Z" fill="#E5E1D8"/>
<path d="M220 192C221.657 192 223 190.657 223 189C223 187.343 221.657 186 220 186C218.343 186 217 187.343 217 189C217 190.657 218.343 192 220 192Z" fill="#E5E1D8"/>
<path d="M132 214C133.657 214 135 212.657 135 211C135 209.343 133.657 208 132 208C130.343 208 129 209.343 129 211C129 212.657 130.343 214 132 214Z" fill="#E5E1D8"/>
<path d="M154 214C155.657 214 157 212.657 157 211C157 209.343 155.657 208 154 208C152.343 208 151 209.343 151 211C151 212.657 152.343 214 154 214Z" fill="#E5E1D8"/>
<path d="M176 214C177.657 214 179 212.657 179 211C179 209.343 177.657 208 176 208C174.343 208 173 209.343 173 211C173 212.657 174.343 214 176 214Z" fill="#E5E1D8"/>
<path d="M198 214C199.657 214 201 212.657 201 211C201 209.343 199.657 208 198 208C196.343 208 195 209.343 195 211C195 212.657 196.343 214 198 214Z" fill="#E5E1D8"/>
<path d="M220 214C221.657 214 223 212.657 223 211C223 209.343 221.657 208 220 208C218.343 208 217 209.343 217 211C217 212.657 218.343 214 220 214Z" fill="#E5E1D8"/>
<path d="M132 236C133.657 236 135 234.657 135 233C135 231.343 133.657 230 132 230C130.343 230 129 231.343 129 233C129 234.657 130.343 236 132 236Z" fill="#E5E1D8"/>
<path d="M154 236C155.657 236 157 234.657 157 233C157 231.343 155.657 230 154 230C152.343 230 151 231.343 151 233C151 234.657 152.343 236 154 236Z" fill="#E5E1D8"/>
<path d="M176 236C177.657 236 179 234.657 179 233C179 231.343 177.657 230 176 230C174.343 230 173 231.343 173 233C173 234.657 174.343 236 176 236Z" fill="#E5E1D8"/>
<path d="M198 236C199.657 236 201 234.657 201 233C201 231.343 199.657 230 198 230C196.343 230 195 231.343 195 233C195 234.657 196.343 236 198 236Z" fill="#E5E1D8"/>
<path d="M220 236C221.657 236 223 234.657 223 233C223 231.343 221.657 230 220 230C218.343 230 217 231.343 217 233C217 234.657 218.343 236 220 236Z" fill="#E5E1D8"/>
<path d="M132 258C133.657 258 135 256.657 135 255C135 253.343 133.657 252 132 252C130.343 252 129 253.343 129 255C129 256.657 130.343 258 132 258Z" fill="#E5E1D8"/>
<path d="M154 258C155.657 258 157 256.657 157 255C157 253.343 155.657 252 154 252C152.343 252 151 253.343 151 255C151 256.657 152.343 258 154 258Z" fill="#E5E1D8"/>
<path d="M176 258C177.657 258 179 256.657 179 255C179 253.343 177.657 252 176 252C174.343 252 173 253.343 173 255C173 256.657 174.343 258 176 258Z" fill="#E5E1D8"/>
<path d="M198 258C199.657 258 201 256.657 201 255C201 253.343 199.657 252 198 252C196.343 252 195 253.343 195 255C195 256.657 196.343 258 198 258Z" fill="#E5E1D8"/>
<path d="M220 258C221.657 258 223 256.657 223 255C223 253.343 221.657 252 220 252C218.343 252 217 253.343 217 255C217 256.657 218.343 258 220 258Z" fill="#E5E1D8"/>
<path d="M23 148C24.6569 148 26 146.657 26 145C26 143.343 24.6569 142 23 142C21.3431 142 20 143.343 20 145C20 146.657 21.3431 148 23 148Z" fill="#E5E1D8"/>
<path d="M45 148C46.6569 148 48 146.657 48 145C48 143.343 46.6569 142 45 142C43.3431 142 42 143.343 42 145C42 146.657 43.3431 148 45 148Z" fill="#E5E1D8"/>
<path d="M67 148C68.6569 148 70 146.657 70 145C70 143.343 68.6569 142 67 142C65.3431 142 64 143.343 64 145C64 146.657 65.3431 148 67 148Z" fill="#E5E1D8"/>
<path d="M89 148C90.6569 148 92 146.657 92 145C92 143.343 90.6569 142 89 142C87.3431 142 86 143.343 86 145C86 146.657 87.3431 148 89 148Z" fill="#E5E1D8"/>
<path d="M111 148C112.657 148 114 146.657 114 145C114 143.343 112.657 142 111 142C109.343 142 108 143.343 108 145C108 146.657 109.343 148 111 148Z" fill="#E5E1D8"/>
<path d="M133 148C134.657 148 136 146.657 136 145C136 143.343 134.657 142 133 142C131.343 142 130 143.343 130 145C130 146.657 131.343 148 133 148Z" fill="#E5E1D8"/>
<path d="M23 170C24.6569 170 26 168.657 26 167C26 165.343 24.6569 164 23 164C21.3431 164 20 165.343 20 167C20 168.657 21.3431 170 23 170Z" fill="#E5E1D8"/>
<path d="M45 170C46.6569 170 48 168.657 48 167C48 165.343 46.6569 164 45 164C43.3431 164 42 165.343 42 167C42 168.657 43.3431 170 45 170Z" fill="#E5E1D8"/>
<path d="M67 170C68.6569 170 70 168.657 70 167C70 165.343 68.6569 164 67 164C65.3431 164 64 165.343 64 167C64 168.657 65.3431 170 67 170Z" fill="#E5E1D8"/>
<path d="M89 170C90.6569 170 92 168.657 92 167C92 165.343 90.6569 164 89 164C87.3431 164 86 165.343 86 167C86 168.657 87.3431 170 89 170Z" fill="#E5E1D8"/>
<path d="M111 170C112.657 170 114 168.657 114 167C114 165.343 112.657 164 111 164C109.343 164 108 165.343 108 167C108 168.657 109.343 170 111 170Z" fill="#E5E1D8"/>
<path d="M133 170C134.657 170 136 168.657 136 167C136 165.343 134.657 164 133 164C131.343 164 130 165.343 130 167C130 168.657 131.343 170 133 170Z" fill="#E5E1D8"/>
<path d="M23 192C24.6569 192 26 190.657 26 189C26 187.343 24.6569 186 23 186C21.3431 186 20 187.343 20 189C20 190.657 21.3431 192 23 192Z" fill="#E5E1D8"/>
<path d="M45 192C46.6569 192 48 190.657 48 189C48 187.343 46.6569 186 45 186C43.3431 186 42 187.343 42 189C42 190.657 43.3431 192 45 192Z" fill="#E5E1D8"/>
<path d="M67 192C68.6569 192 70 190.657 70 189C70 187.343 68.6569 186 67 186C65.3431 186 64 187.343 64 189C64 190.657 65.3431 192 67 192Z" fill="#E5E1D8"/>
<path d="M89 192C90.6569 192 92 190.657 92 189C92 187.343 90.6569 186 89 186C87.3431 186 86 187.343 86 189C86 190.657 87.3431 192 89 192Z" fill="#E5E1D8"/>
<path d="M111 192C112.657 192 114 190.657 114 189C114 187.343 112.657 186 111 186C109.343 186 108 187.343 108 189C108 190.657 109.343 192 111 192Z" fill="#E5E1D8"/>
<path d="M133 192C134.657 192 136 190.657 136 189C136 187.343 134.657 186 133 186C131.343 186 130 187.343 130 189C130 190.657 131.343 192 133 192Z" fill="#E5E1D8"/>
<path d="M23 214C24.6569 214 26 212.657 26 211C26 209.343 24.6569 208 23 208C21.3431 208 20 209.343 20 211C20 212.657 21.3431 214 23 214Z" fill="#E5E1D8"/>
<path d="M45 214C46.6569 214 48 212.657 48 211C48 209.343 46.6569 208 45 208C43.3431 208 42 209.343 42 211C42 212.657 43.3431 214 45 214Z" fill="#E5E1D8"/>
<path d="M67 214C68.6569 214 70 212.657 70 211C70 209.343 68.6569 208 67 208C65.3431 208 64 209.343 64 211C64 212.657 65.3431 214 67 214Z" fill="#E5E1D8"/>
<path d="M89 214C90.6569 214 92 212.657 92 211C92 209.343 90.6569 208 89 208C87.3431 208 86 209.343 86 211C86 212.657 87.3431 214 89 214Z" fill="#E5E1D8"/>
<path d="M111 214C112.657 214 114 212.657 114 211C114 209.343 112.657 208 111 208C109.343 208 108 209.343 108 211C108 212.657 109.343 214 111 214Z" fill="#E5E1D8"/>
<path d="M133 214C134.657 214 136 212.657 136 211C136 209.343 134.657 208 133 208C131.343 208 130 209.343 130 211C130 212.657 131.343 214 133 214Z" fill="#E5E1D8"/>
<path d="M23 236C24.6569 236 26 234.657 26 233C26 231.343 24.6569 230 23 230C21.3431 230 20 231.343 20 233C20 234.657 21.3431 236 23 236Z" fill="#E5E1D8"/>
<path d="M45 236C46.6569 236 48 234.657 48 233C48 231.343 46.6569 230 45 230C43.3431 230 42 231.343 42 233C42 234.657 43.3431 236 45 236Z" fill="#E5E1D8"/>
<path d="M67 236C68.6569 236 70 234.657 70 233C70 231.343 68.6569 230 67 230C65.3431 230 64 231.343 64 233C64 234.657 65.3431 236 67 236Z" fill="#E5E1D8"/>
<path d="M89 236C90.6569 236 92 234.657 92 233C92 231.343 90.6569 230 89 230C87.3431 230 86 231.343 86 233C86 234.657 87.3431 236 89 236Z" fill="#E5E1D8"/>
<path d="M111 236C112.657 236 114 234.657 114 233C114 231.343 112.657 230 111 230C109.343 230 108 231.343 108 233C108 234.657 109.343 236 111 236Z" fill="#E5E1D8"/>
<path d="M133 236C134.657 236 136 234.657 136 233C136 231.343 134.657 230 133 230C131.343 230 130 231.343 130 233C130 234.657 131.343 236 133 236Z" fill="#E5E1D8"/>
<path d="M23 258C24.6569 258 26 256.657 26 255C26 253.343 24.6569 252 23 252C21.3431 252 20 253.343 20 255C20 256.657 21.3431 258 23 258Z" fill="#E5E1D8"/>
<path d="M45 258C46.6569 258 48 256.657 48 255C48 253.343 46.6569 252 45 252C43.3431 252 42 253.343 42 255C42 256.657 43.3431 258 45 258Z" fill="#E5E1D8"/>
<path d="M67 258C68.6569 258 70 256.657 70 255C70 253.343 68.6569 252 67 252C65.3431 252 64 253.343 64 255C64 256.657 65.3431 258 67 258Z" fill="#E5E1D8"/>
<path d="M89 258C90.6569 258 92 256.657 92 255C92 253.343 90.6569 252 89 252C87.3431 252 86 253.343 86 255C86 256.657 87.3431 258 89 258Z" fill="#E5E1D8"/>
<path d="M111 258C112.657 258 114 256.657 114 255C114 253.343 112.657 252 111 252C109.343 252 108 253.343 108 255C108 256.657 109.343 258 111 258Z" fill="#E5E1D8"/>
<path d="M133 258C134.657 258 136 256.657 136 255C136 253.343 134.657 252 133 252C131.343 252 130 253.343 130 255C130 256.657 131.343 258 133 258Z" fill="#E5E1D8"/>
<line x1="21" y1="492.586" x2="493.586" y2="20.0001" stroke="#E5E1D8" stroke-width="2" stroke-linecap="round"/>
<line x1="23" y1="275.994" x2="335.263" y2="275.994" stroke="#E5E1D8" stroke-width="6" stroke-linecap="round"/>
<line x1="240.168" y1="33" x2="240.168" y2="371.473" stroke="#E5E1D8" stroke-width="6" stroke-linecap="round"/>
<circle cx="286.5" cy="276.5" r="202.5" stroke="#3F6F6A" stroke-width="6"/>
<circle cx="241" cy="276" r="14" fill="#3F6F6A"/>
</svg>
