<svg width="512" height="512" viewBox="0 0 512 512" fill="none" xmlns="http://www.w3.org/2000/svg">
<rect width="512" height="512" fill="white"/>
<circle cx="256.5" cy="255.5" r="202.5" fill="#3F6F6A" stroke="#3F6F6A" stroke-width="6"/>
<line x1="51" y1="255" x2="462" y2="255" stroke="white" stroke-width="6"/>
<line x1="210" y1="53" x2="210" y2="453" stroke="white" stroke-width="6" stroke-linecap="round"/>
<circle cx="211" cy="255" r="14" fill="white"/>
<line x1="77" y1="389.586" x2="399.586" y2="67" stroke="white" stroke-width="2" stroke-linecap="round"/>
<g opacity="0.95">
<path d="M48 98C49.6569 98 51 96.6569 51 95C51 93.3431 49.6569 92 48 92C46.3431 92 45 93.3431 45 95C45 96.6569 46.3431 98 48 98Z" fill="white"/>
<path d="M74 98C75.6569 98 77 96.6569 77 95C77 93.3431 75.6569 92 74 92C72.3431 92 71 93.3431 71 95C71 96.6569 72.3431 98 74 98Z" fill="white"/>
<path d="M100 98C101.657 98 103 96.6569 103 95C103 93.3431 101.657 92 100 92C98.3431 92 97 93.3431 97 95C97 96.6569 98.3431 98 100 98Z" fill="white"/>
<path d="M126 98C127.657 98 129 96.6569 129 95C129 93.3431 127.657 92 126 92C124.343 92 123 93.3431 123 95C123 96.6569 124.343 98 126 98Z" fill="white"/>
<path d="M152 98C153.657 98 155 96.6569 155 95C155 93.3431 153.657 92 152 92C150.343 92 149 93.3431 149 95C149 96.6569 150.343 98 152 98Z" fill="white"/>
<path d="M178 98C179.657 98 181 96.6569 181 95C181 93.3431 179.657 92 178 92C176.343 92 175 93.3431 175 95C175 96.6569 176.343 98 178 98Z" fill="white"/>
<path d="M48 124C49.6569 124 51 122.657 51 121C51 119.343 49.6569 118 48 118C46.3431 118 45 119.343 45 121C45 122.657 46.3431 124 48 124Z" fill="white"/>
<path d="M74 124C75.6569 124 77 122.657 77 121C77 119.343 75.6569 118 74 118C72.3431 118 71 119.343 71 121C71 122.657 72.3431 124 74 124Z" fill="white"/>
<path d="M100 124C101.657 124 103 122.657 103 121C103 119.343 101.657 118 100 118C98.3431 118 97 119.343 97 121C97 122.657 98.3431 124 100 124Z" fill="white"/>
<path d="M126 124C127.657 124 129 122.657 129 121C129 119.343 127.657 118 126 118C124.343 118 123 119.343 123 121C123 122.657 124.343 124 126 124Z" fill="white"/>
<path d="M152 124C153.657 124 155 122.657 155 121C155 119.343 153.657 118 152 118C150.343 118 149 119.343 149 121C149 122.657 150.343 124 152 124Z" fill="white"/>
<path d="M178 124C179.657 124 181 122.657 181 121C181 119.343 179.657 118 178 118C176.343 118 175 119.343 175 121C175 122.657 176.343 124 178 124Z" fill="white"/>
<path d="M48 150C49.6569 150 51 148.657 51 147C51 145.343 49.6569 144 48 144C46.3431 144 45 145.343 45 147C45 148.657 46.3431 150 48 150Z" fill="white"/>
<path d="M74 150C75.6569 150 77 148.657 77 147C77 145.343 75.6569 144 74 144C72.3431 144 71 145.343 71 147C71 148.657 72.3431 150 74 150Z" fill="white"/>
<path d="M100 150C101.657 150 103 148.657 103 147C103 145.343 101.657 144 100 144C98.3431 144 97 145.343 97 147C97 148.657 98.3431 150 100 150Z" fill="white"/>
<path d="M126 150C127.657 150 129 148.657 129 147C129 145.343 127.657 144 126 144C124.343 144 123 145.343 123 147C123 148.657 124.343 150 126 150Z" fill="white"/>
<path d="M152 150C153.657 150 155 148.657 155 147C155 145.343 153.657 144 152 144C150.343 144 149 145.343 149 147C149 148.657 150.343 150 152 150Z" fill="white"/>
<path d="M178 150C179.657 150 181 148.657 181 147C181 145.343 179.657 144 178 144C176.343 144 175 145.343 175 147C175 148.657 176.343 150 178 150Z" fill="white"/>
<path d="M48 176C49.6569 176 51 174.657 51 173C51 171.343 49.6569 170 48 170C46.3431 170 45 171.343 45 173C45 174.657 46.3431 176 48 176Z" fill="white"/>
<path d="M74 176C75.6569 176 77 174.657 77 173C77 171.343 75.6569 170 74 170C72.3431 170 71 171.343 71 173C71 174.657 72.3431 176 74 176Z" fill="white"/>
<path d="M100 176C101.657 176 103 174.657 103 173C103 171.343 101.657 170 100 170C98.3431 170 97 171.343 97 173C97 174.657 98.3431 176 100 176Z" fill="white"/>
<path d="M126 176C127.657 176 129 174.657 129 173C129 171.343 127.657 170 126 170C124.343 170 123 171.343 123 173C123 174.657 124.343 176 126 176Z" fill="white"/>
<path d="M152 176C153.657 176 155 174.657 155 173C155 171.343 153.657 170 152 170C150.343 170 149 171.343 149 173C149 174.657 150.343 176 152 176Z" fill="white"/>
<path d="M178 176C179.657 176 181 174.657 181 173C181 171.343 179.657 170 178 170C176.343 170 175 171.343 175 173C175 174.657 176.343 176 178 176Z" fill="white"/>
<path d="M48 202C49.6569 202 51 200.657 51 199C51 197.343 49.6569 196 48 196C46.3431 196 45 197.343 45 199C45 200.657 46.3431 202 48 202Z" fill="white"/>
<path d="M74 202C75.6569 202 77 200.657 77 199C77 197.343 75.6569 196 74 196C72.3431 196 71 197.343 71 199C71 200.657 72.3431 202 74 202Z" fill="white"/>
<path d="M100 202C101.657 202 103 200.657 103 199C103 197.343 101.657 196 100 196C98.3431 196 97 197.343 97 199C97 200.657 98.3431 202 100 202Z" fill="white"/>
<path d="M126 202C127.657 202 129 200.657 129 199C129 197.343 127.657 196 126 196C124.343 196 123 197.343 123 199C123 200.657 124.343 202 126 202Z" fill="white"/>
<path d="M152 202C153.657 202 155 200.657 155 199C155 197.343 153.657 196 152 196C150.343 196 149 197.343 149 199C149 200.657 150.343 202 152 202Z" fill="white"/>
<path d="M178 202C179.657 202 181 200.657 181 199C181 197.343 179.657 196 178 196C176.343 196 175 197.343 175 199C175 200.657 176.343 202 178 202Z" fill="white"/>
<path d="M48 228C49.6569 228 51 226.657 51 225C51 223.343 49.6569 222 48 222C46.3431 222 45 223.343 45 225C45 226.657 46.3431 228 48 228Z" fill="white"/>
<path d="M74 228C75.6569 228 77 226.657 77 225C77 223.343 75.6569 222 74 222C72.3431 222 71 223.343 71 225C71 226.657 72.3431 228 74 228Z" fill="white"/>
<path d="M100 228C101.657 228 103 226.657 103 225C103 223.343 101.657 222 100 222C98.3431 222 97 223.343 97 225C97 226.657 98.3431 228 100 228Z" fill="white"/>
<path d="M126 228C127.657 228 129 226.657 129 225C129 223.343 127.657 222 126 222C124.343 222 123 223.343 123 225C123 226.657 124.343 228 126 228Z" fill="white"/>
<path d="M152 228C153.657 228 155 226.657 155 225C155 223.343 153.657 222 152 222C150.343 222 149 223.343 149 225C149 226.657 150.343 228 152 228Z" fill="white"/>
<path d="M178 228C179.657 228 181 226.657 181 225C181 223.343 179.657 222 178 222C176.343 222 175 223.343 175 225C175 226.657 176.343 228 178 228Z" fill="white"/>
</g>
</svg>
