<svg width="512" height="512" viewBox="0 0 512 512" fill="none" xmlns="http://www.w3.org/2000/svg">
<g clip-path="url(#clip0_22_21)">
<rect width="512" height="512" rx="60" fill="#FAF9F5"/>
<path d="M244.96 401.8C223.2 401.8 204.16 398.44 187.84 391.72C171.52 384.68 158.72 375.08 149.44 362.92C140.48 350.76 136 336.52 136 320.2H208C208 327.88 211.36 334.12 218.08 338.92C225.12 343.4 234.08 345.64 244.96 345.64H266.08C279.2 345.64 289.12 343.24 295.84 338.44C302.88 333.64 306.4 326.92 306.4 318.28C306.4 310.28 303.36 304.2 297.28 300.04C291.2 295.56 281.76 292.52 268.96 290.92L238.24 287.08C205.28 282.92 181.28 274.92 166.24 263.08C151.2 251.24 143.68 233.16 143.68 208.84C143.68 183.24 152.48 163.4 170.08 149.32C187.68 135.24 213.44 128.2 247.36 128.2H265.6C297.92 128.2 323.68 135.24 342.88 149.32C362.08 163.4 371.68 182.28 371.68 205.96H299.68C299.68 199.56 296.48 194.44 290.08 190.6C284 186.44 275.84 184.36 265.6 184.36H247.36C235.52 184.36 226.88 186.44 221.44 190.6C216 194.44 213.28 200.36 213.28 208.36C213.28 215.72 215.68 221.32 220.48 225.16C225.6 229 233.6 231.72 244.48 233.32L277.6 237.64C310.88 241.8 335.52 250.12 351.52 262.6C367.84 275.08 376 293.64 376 318.28C376 345.16 366.72 365.8 348.16 380.2C329.6 394.6 302.24 401.8 266.08 401.8H244.96Z" fill="black"/>
<rect x="400" y="337" width="375" height="60" rx="30" fill="#3F6F6A"/>
</g>
<defs>
<clipPath id="clip0_22_21">
<rect width="512" height="512" fill="white"/>
</clipPath>
</defs>
</svg>
